<?xml version="1.0" standalone="no"?>
<!DOCTYPE svg PUBLIC "-//W3C//DTD SVG 20010904//EN"
 "http://www.w3.org/TR/2001/REC-SVG-20010904/DTD/svg10.dtd">
<svg version="1.0" xmlns="http://www.w3.org/2000/svg"
 width="218.000000pt" height="218.000000pt" viewBox="0 0 218.000000 218.000000"
 preserveAspectRatio="xMidYMid meet">
<metadata>
Created by potrace 1.11, written by Peter Selinger 2001-2013
</metadata>
<g transform="translate(0.000000,218.000000) scale(0.100000,-0.100000)"
fill="#000000" stroke="none">
<path d="M972 1972 c-14 -7 -52 -14 -86 -16 -34 -2 -70 -7 -81 -11 -43 -17
-142 -66 -180 -90 -22 -14 -51 -30 -65 -37 -36 -17 -106 -91 -145 -153 -19
-29 -40 -59 -47 -66 -25 -26 -75 -94 -92 -124 -22 -40 -60 -91 -118 -157 -47
-54 -48 -56 -52 -134 -3 -43 -10 -97 -17 -119 -6 -22 -12 -47 -13 -55 -1 -8
-10 -33 -19 -55 -16 -35 -28 -75 -42 -141 -3 -14 4 -31 21 -49 21 -23 24 -34
19 -64 -5 -32 -2 -38 25 -56 18 -11 42 -43 56 -72 14 -29 39 -64 57 -78 18
-14 38 -30 45 -36 31 -25 178 -112 206 -121 17 -6 41 -20 53 -30 22 -21 69
-35 142 -43 23 -3 59 -9 80 -13 20 -4 54 -5 76 -2 22 3 58 2 80 -3 22 -5 54
-11 70 -13 35 -6 374 -5 426 1 37 4 118 39 181 77 40 26 138 113 138 124 0 9
81 98 95 103 5 2 18 12 28 23 11 11 26 17 37 13 14 -5 23 3 36 30 17 37 58 75
80 75 7 0 22 10 33 21 12 13 28 20 38 17 34 -9 45 16 27 64 -19 54 -20 62 -11
125 5 32 15 57 25 65 30 22 71 103 77 154 11 87 13 194 4 188 -13 -8 -11 10 4
25 7 8 7 11 1 8 -7 -4 -14 7 -18 31 -14 93 -121 231 -239 309 -39 26 -84 60
-98 75 -30 31 -136 82 -206 100 -27 6 -85 28 -130 49 -46 21 -83 36 -83 34 0
-3 -18 2 -40 11 -28 11 -59 15 -98 12 -31 -3 -68 -1 -82 4 -39 15 -170 15
-198 0z"/>
</g>
</svg>
